<?xml version="1.0" encoding="utf-8"?>
<!-- Generator: Adobe Illustrator 27.0.0, SVG Export Plug-In . SVG Version: 6.00 Build 0)  -->
<svg version="1.1" id="NexT" xmlns:svg="http://www.w3.org/2000/svg"
	 xmlns="http://www.w3.org/2000/svg" xmlns:xlink="http://www.w3.org/1999/xlink" x="0px" y="0px" viewBox="0 0 512 512"
	 style="enable-background:new 0 0 512 512;" xml:space="preserve">
<style type="text/css">
	.st0{fill:#FFFFFF;}
	.st1{fill:#222222;}
</style>
<path class="st0" d="M256.4,25.8l-200,115.5L56,371.5l199.6,114.7l200-115.5l0.4-230.2L256.4,25.8z"/>
<path class="st1" d="M157.1,83.2l-1.3,0.8C94.3,119.4,56.3,185,56.2,256v0c-0.1,71.4,38,137.4,99.9,173l0,0
	c61.6,35.4,137.3,35.3,198.8-0.2l1.3-0.8c61.5-35.5,99.4-101.1,99.5-172.1v0c0.1-71.4-38-137.4-99.9-173l0,0
	C294.3,47.6,218.5,47.7,157.1,83.2z"/>
<path class="st0" d="M192.9,129c3.1,1.9,6.6,15.6,10.7,41.1l-1.5,8.5v4.3l4.6,19.8v7.1l-4.6,29.8c2,3.8,3.1,9.5,3.1,17v1.4h9.2
	c31.6,0,62.8-4.3,93.4-12.8v-1.4h1.5v2.8h1.5l1.5-4.3l-1.5-5.7l1.5-8.5l-1.5-17v-5.7h-3.1l1.5-8.5l-1.5-1.4l6.1-19.8l-1.5-2.8v-1.4
	c3.1-20.8,7.7-34,13.8-39.7c6.1,0,10.7,16.1,13.8,48.2l-1.5,55.3h1.5l-1.5,1.4v2.8l4.6,21.3h-1.5c2,3.8,5.6,20.3,10.7,49.6l-1.5,1.4
	h-1.5l3.1,9.9l-1.5,19.8l1.5,19.8l-1.5,1.4h1.5l-9.2,34h-1.5l-4.6-2.8v1.4l-10.7-7.1l-1.5,1.4c-8.2-6.6-12.2-20.3-12.2-41.1h3.1
	l-1.5-18.4l1.5-5.7l-1.5-7.1v-25.5c-2.1-2.8-3.6-9-4.6-18.4c-11.2,7.6-23.5,11.3-36.7,11.3l-1.5-1.4h-1.5
	c-5.1,1.9-14.3,2.8-27.6,2.8h-3.1l-7.7-1.4l-6.1,1.4h-1.5l-7.7-1.4c-7.2,1.9-10.7,3.8-10.7,5.7l1.5,4.2l-3.1,11.3l1.5,1.4v1.4
	c0,6.6-1.5,9.9-4.6,9.9v2.8l1.5,1.4v1.4H199l3.1,5.7v8.5c-3.1,0-5.1,2.8-6.1,8.5l1.5,1.4h-4.6l4.6,5.7c-2.1,8.5-5.1,12.8-9.2,12.8
	l-3.1,2.8v1.4c-4.1-0.9-6.1-4.3-6.1-9.9c-3.1,0-4.6,1.9-4.6,5.7l-1.5-2.8h-1.5l-1.5,2.8c-6.1-7.5-9.2-13.2-9.2-17v-32.6l1.5-31.2
	l-3.1-4.3l-4.6,1.4c-8.2,0-15.3-4.7-21.4-14.2v-2.8h7.7c14.3,0,21.4-1.9,21.4-5.7V248c0-27.4,5.1-61.4,15.3-102l-1.5-4.3
	C182.2,141.7,187.8,137.5,192.9,129z"/>
</svg>
